HIERARCHY
ROOT Hips
{
	OFFSET 0.00000 0.00000 0.00000
	CHANNELS 6 Xposition Yposition Zposition Zrotation Yrotation Xrotation 
	JOINT LHipJoint
	{
		OFFSET 0 0 0
		CHANNELS 3 Zrotation Yrotation Xrotation
		JOINT LeftUpLeg
		{
			OFFSET 1.81638 -1.86202 0.89635
			CHANNELS 3 Zrotation Yrotation Xrotation
			JOINT LeftLeg
			{
				OFFSET 2.63464 -7.23861 0.00000
				CHANNELS 3 Zrotation Yrotation Xrotation
				JOINT LeftFoot
				{
					OFFSET 2.45871 -6.75336 0.00000
					CHANNELS 3 Zrotation Yrotation Xrotation
					JOINT LeftToeBase
					{
						OFFSET 0.34235 -0.94059 2.20020
						CHANNELS 3 Zrotation Yrotation Xrotation
						End Site
						{
							OFFSET 0.00000 -0.00000 1.18611
						}
					}
				}
			}
		}
	}
	JOINT RHipJoint
	{
		OFFSET 0 0 0
		CHANNELS 3 Zrotation Yrotation Xrotation
		JOINT RightUpLeg
		{
			OFFSET -1.84405 -1.86203 0.89635
			CHANNELS 3 Zrotation Yrotation Xrotation
			JOINT RightLeg
			{
				OFFSET -2.71067 -7.44751 0.00000
				CHANNELS 3 Zrotation Yrotation Xrotation
				JOINT RightFoot
				{
					OFFSET -2.47159 -6.79060 0.00000
					CHANNELS 3 Zrotation Yrotation Xrotation
					JOINT RightToeBase
					{
						OFFSET -0.26223 -0.72048 2.36007
						CHANNELS 3 Zrotation Yrotation Xrotation
						End Site
						{
							OFFSET -0.00000 -0.00000 1.23343
						}
					}
				}
			}
		}
	}
	JOINT LowerBack
	{
		OFFSET 0 0 0
		CHANNELS 3 Zrotation Yrotation Xrotation
		JOINT Spine
		{
			OFFSET 0.02089 1.99248 -0.22512
			CHANNELS 3 Zrotation Yrotation Xrotation
			JOINT Spine1
			{
				OFFSET 0.01476 2.01356 -0.03079
				CHANNELS 3 Zrotation Yrotation Xrotation
				JOINT Neck
				{
					OFFSET 0 0 0
					CHANNELS 3 Zrotation Yrotation Xrotation
					JOINT Neck1
					{
						OFFSET 0.04846 1.65098 0.06663
						CHANNELS 3 Zrotation Yrotation Xrotation
						JOINT Head
						{
							OFFSET -0.06061 1.60634 -0.07565
							CHANNELS 3 Zrotation Yrotation Xrotation
							End Site
							{
								OFFSET -0.02954 1.73562 -0.03642
							}
						}
					}
				}
				JOINT LeftShoulder
				{
					OFFSET 0 0 0
					CHANNELS 3 Zrotation Yrotation Xrotation
					JOINT LeftArm
					{
						OFFSET 3.45234 1.47051 -0.06993
						CHANNELS 3 Zrotation Yrotation Xrotation
						JOINT LeftForeArm
						{
							OFFSET 5.49313 -0.00000 0.00000
							CHANNELS 3 Zrotation Yrotation Xrotation
							JOINT LeftHand
							{
								OFFSET 3.29037 -0.00000 0.00000
								CHANNELS 3 Zrotation Yrotation Xrotation
								JOINT LeftFingerBase
								{
									OFFSET 0 0 0
									CHANNELS 3 Zrotation Yrotation Xrotation
									JOINT LeftHandIndex1
									{
										OFFSET 0.72966 -0.00000 0.00000
										CHANNELS 3 Zrotation Yrotation Xrotation
										End Site
										{
											OFFSET 0.58827 -0.00000 0.00000
										}
									}
								}
								JOINT LThumb
								{
									OFFSET 0 0 0
									CHANNELS 3 Zrotation Yrotation Xrotation
									End Site
									{
										OFFSET 0.59725 -0.00000 0.59725
									}
								}
							}
						}
					}
				}
				JOINT RightShoulder
				{
					OFFSET 0 0 0
					CHANNELS 3 Zrotation Yrotation Xrotation
					JOINT RightArm
					{
						OFFSET -3.41935 1.44327 0.20453
						CHANNELS 3 Zrotation Yrotation Xrotation
						JOINT RightForeArm
						{
							OFFSET -5.23684 -0.00000 0.00000
							CHANNELS 3 Zrotation Yrotation Xrotation
							JOINT RightHand
							{
								OFFSET -3.38251 -0.00000 0.00000
								CHANNELS 3 Zrotation Yrotation Xrotation
								JOINT RightFingerBase
								{
									OFFSET 0 0 0
									CHANNELS 3 Zrotation Yrotation Xrotation
									JOINT RightHandIndex1
									{
										OFFSET -0.69145 -0.00000 0.00000
										CHANNELS 3 Zrotation Yrotation Xrotation
										End Site
										{
											OFFSET -0.55747 -0.00000 0.00000
										}
									}
								}
								JOINT RThumb
								{
									OFFSET 0 0 0
									CHANNELS 3 Zrotation Yrotation Xrotation
									End Site
									{
										OFFSET -0.56598 -0.00000 0.56598
									}
								}
							}
						}
					}
				}
			}
		}
	}
}
MOTION
Frames: 15
Frame Time: 0.111111
0.00 0.00 0.00 0 0 0 0 0 0 -21 0 0 0 0 0 0 0 0 0 0 0 0 0 0 21 0 0 0 0 0 0 0 0 0 0 0 0 0 0 0 0 0 0 0 0 0 0 -16 0 0 21 0 0 11 0 0 0 -8 0 0 0 0 0 0 0 0 0 0 0 0 0 0 0 0 0 0 0 0 8 0 0 0 0 0 0 0 0 0 0 0 0 0 0 0 0 0
0.00 0.00 0.00 -29.2531 81.7103 -21.8469 0.0000 0.0000 0.0000 -12.3373 -9.7707 -18.1525 5.6645 14.0952 43.6201 2.7069 -20.3417 -30.9427 0.0047 -0.4447 -1.2220 0.0000 0.0000 0.0000 24.8263 7.6650 2.9679 -2.8072 -10.3762 30.2039 -1.7086 11.3845 -23.5907 -0.7272 5.4486 -15.1926 -3.5831 1.3257 15.6800 -2.5785 1.4022 5.6079 -0.9385 0.8137 -2.8403 3.0169 0.9417 -1.2222 3.3178 1.9351 -11.6793 0.5049 0.8296 -3.5688 0.0000 -0.0000 0.0000 -74.1227 10.6620 30.6032 25.1050 -36.3111 -8.3520 -0.0000 -0.0000 0.6009 0.0515 11.2548 0.0101 -7.1250 0.0000 -0.0000 -23.4716 40.0509 3.0597 0.0000 -0.0000 0.0000 77.2161 -17.9528 50.6596 -29.2258 40.2205 -10.9062 0.0000 -0.0000 -1.5748 -11.8463 -13.7213 2.8483 7.1250 -0.0000 -0.0000 14.1680 -43.5266 0.5264
0.00 0.00 0.00 -22.8104 81.4013 -15.7155 0.0000 0.0000 0.0000 -14.3150 -9.0573 -14.8183 5.2015 13.6071 41.6859 2.8856 -19.9968 -31.7460 0.0001 -0.0585 -0.1607 0.0000 0.0000 0.0000 21.9042 7.9821 -4.0292 -6.0076 -14.4357 45.0123 -0.4306 15.7329 -15.1439 -1.0622 6.5526 -18.3964 -5.0835 1.2747 16.5861 -3.2187 1.0939 5.9954 -0.7314 0.6760 -2.9075 3.3013 0.8366 -1.1444 2.4962 1.7249 -11.9813 0.1917 0.7341 -3.6767 -0.0000 0.0000 0.0000 -72.5628 7.1875 30.5950 27.1910 -38.3608 -9.6174 -0.0000 -0.0000 1.3434 0.5515 12.0027 0.1147 -7.1250 0.0000 -0.0000 -23.3127 40.7823 2.5853 -0.0000 0.0000 0.0000 77.2441 -18.4044 50.0374 -28.7552 39.8022 -10.6036 0.0000 -0.0000 -1.5027 -11.5911 -13.7238 2.7858 7.1250 -0.0000 -0.0000 14.3943 -43.5017 0.5442
0.00 0.00 0.00 -11.9385 81.2740 -5.1922 0.0000 0.0000 0.0000 -17.1076 -7.4881 -10.6547 4.4597 12.7482 38.4330 2.8993 -20.3874 -31.9013 0.0032 0.3640 1.0001 0.0000 0.0000 0.0000 18.0245 9.5333 -12.2513 -10.1828 -17.5114 60.0977 0.0932 17.1484 -11.1280 -0.8278 5.8046 -16.2186 -7.2030 0.9172 17.5031 -3.6716 0.2536 6.2677 0.1237 0.2706 -3.0596 3.5265 1.1629 -1.2183 1.6214 2.0504 -11.7454 -0.1412 0.9159 -3.5646 0.0000 0.0000 0.0000 -70.3880 4.1373 32.3750 32.9714 -43.3081 -13.4025 -0.0000 0.0000 -3.3250 1.6844 13.7542 0.4006 -7.1250 0.0000 -0.0000 -22.9825 42.5023 1.5034 0.0000 0.0000 0.0000 77.0265 -19.7181 48.4467 -28.2747 39.3679 -10.2975 0.0000 -0.0000 -2.0859 -11.8090 -14.1084 2.9175 7.1250 -0.0000 -0.0000 14.3117 -43.9036 0.3958
0.00 0.00 0.00 -7.7480 79.6707 1.6402 0.0000 0.0000 0.0000 -19.4043 -4.9755 0.6758 1.7876 8.4089 23.9630 1.8605 -17.9448 -25.8067 0.0128 -0.7305 -2.0075 0.0000 0.0000 0.0000 15.6375 15.9465 -29.1726 -9.8206 -17.3077 58.8871 -0.8774 12.0639 -17.5540 -0.4097 4.1090 -11.3835 -8.0332 -0.9212 17.9646 -2.6956 -2.4917 4.9484 2.1897 -1.0573 -4.4788 5.7575 3.2991 -4.0978 -1.2838 4.3148 -6.4503 -1.3509 2.1013 -1.1668 0.0000 -0.0000 0.0000 -68.1331 4.1146 31.3529 50.5050 -53.1972 -26.5780 -0.0000 0.0000 -9.8018 8.9435 12.7145 1.9837 -7.1250 0.0000 -0.0000 -16.4202 42.2462 1.1496 0.0000 -0.0000 0.0000 75.7784 -22.6655 44.9704 -25.7118 36.9227 -8.7139 0.0000 0.0000 1.6055 -8.0441 -14.7516 2.0609 7.1250 -0.0000 -0.0000 17.8396 -44.1129 0.4040
0.00 0.00 0.00 -10.9913 79.8757 -0.1998 0.0000 0.0000 0.0000 -19.0619 -3.8492 4.9931 1.3190 7.2741 20.5299 0.8952 -17.6886 -19.6118 0.1190 -2.2238 -6.1245 0.0000 0.0000 0.0000 16.4848 20.1057 -29.1831 -5.8890 -14.3199 44.5345 -1.2411 10.9694 -20.2149 -0.1931 2.8296 -7.8047 -6.5662 -2.0797 17.0945 -0.8465 -3.6966 4.2438 3.5587 -1.6762 -4.6362 7.9119 4.4777 -4.1897 -5.5283 5.6367 -3.9153 -3.0658 2.7594 -0.1079 0.0000 0.0000 0.0000 -70.0209 7.1844 31.4967 51.1855 -53.4626 -27.1238 -0.0000 0.0000 -10.2443 9.3164 11.3483 1.8489 -7.1250 0.0000 -0.0000 -15.7186 40.9559 1.6127 0.0000 0.0000 0.0000 74.3930 -23.2895 42.1259 -24.7901 35.9887 -8.1663 0.0000 0.0000 2.2145 -3.1580 -15.4666 0.8430 7.1250 -0.0000 -0.0000 22.3613 -44.2399 0.4427
0.00 0.00 0.00 -11.5920 82.4365 -1.8466 0.0000 0.0000 0.0000 -16.6429 -0.7208 1.6480 3.5254 11.5005 33.9871 -1.4875 -25.6715 -6.3896 0.3768 -3.9422 -10.9141 0.0000 0.0000 0.0000 18.8341 21.3083 -22.7067 -5.2163 -13.6233 41.7488 -1.6682 6.8107 -23.1660 -0.0252 1.0258 -2.8197 -4.2418 -2.9671 16.8824 1.0158 -4.3304 4.5590 4.3232 -2.0276 -4.1524 10.6304 4.7294 -2.7952 -11.2685 5.9488 -3.2615 -5.0300 2.9263 0.1731 0.0000 -0.0000 0.0000 -72.7826 11.2430 35.7334 43.0999 -49.8029 -20.7770 -0.0000 0.0000 -8.0264 8.7869 11.8948 1.8248 -7.1250 0.0000 -0.0000 -16.3219 41.4381 1.4780 0.0000 -0.0000 0.0000 75.2948 -22.8629 36.1757 -22.9603 34.0454 -7.1161 0.0000 0.0000 4.4850 -2.9197 -15.7973 0.7955 7.1250 -0.0000 -0.0000 22.6961 -44.5182 0.2852
0.00 0.00 0.00 -29.8366 83.4812 -21.6236 0.0000 0.0000 0.0000 -12.2166 -1.2530 -4.5545 7.3192 15.5949 50.0715 -2.6150 -28.1010 3.2813 0.4581 -4.3420 -12.0407 0.0000 0.0000 0.0000 22.9961 20.2874 -17.3022 -5.4010 -13.8216 42.5274 -2.2941 5.5267 -27.4705 -0.0314 1.1441 -3.1453 -0.8258 -2.9576 17.7887 2.3658 -3.5932 5.3399 3.7109 -1.6579 -4.0089 11.5034 4.3554 -2.2188 -13.3535 5.4313 -3.9581 -5.8593 2.6991 -0.0829 -0.0000 0.0000 0.0000 -74.5478 13.9298 38.9647 38.2092 -46.9724 -17.1183 -0.0000 0.0000 -5.9033 8.5454 12.5599 1.8715 -7.1250 0.0000 -0.0000 -16.7196 42.0582 1.2520 -0.0000 0.0000 0.0000 76.6350 -22.3418 32.9356 -22.2384 33.2454 -6.7161 0.0000 0.0000 5.1480 -4.7420 -16.0401 1.3130 7.1250 -0.0000 -0.0000 21.2013 -44.9543 0.0251
0.00 0.00 0.00 -50.5483 81.1810 -42.6644 0.0000 0.0000 0.0000 -5.9107 -0.9728 -13.5619 12.0144 18.3967 66.0344 -2.8440 -29.9445 0.8215 0.4910 -4.4928 -12.4674 0.0000 0.0000 0.0000 28.1725 18.0429 -13.0041 -5.0513 -13.4413 41.0436 -2.6441 6.7108 -29.4528 -0.0278 1.0759 -2.9577 3.6259 -2.2284 17.9592 3.9127 -1.7056 5.9251 2.4396 -0.6924 -3.6841 11.6923 3.7728 -2.1960 -14.1360 4.5912 -4.7187 -6.1719 2.3012 -0.3829 -0.0000 -0.0000 0.0000 -76.0673 17.6240 41.7026 33.8046 -43.9394 -13.9773 -0.0000 0.0000 -3.5486 8.0511 13.3405 1.8693 -7.1250 0.0000 -0.0000 -17.3817 42.7606 0.9930 -0.0000 -0.0000 0.0000 77.2408 -21.3515 32.3558 -21.7376 32.6791 -6.4436 0.0000 0.0000 6.0190 -6.6742 -16.2426 1.8746 7.1250 -0.0000 -0.0000 19.5744 -45.3729 -0.1874
0.00 0.00 0.00 -43.9661 81.1742 -35.0927 0.0000 0.0000 0.0000 -5.0198 -3.4098 -33.0209 14.4614 19.2480 73.6087 -0.2307 -24.0004 -15.3001 0.9374 -6.1671 -17.2700 0.0000 0.0000 0.0000 28.2087 12.8430 -3.5601 -3.1632 -10.9547 32.1271 -2.5707 8.8271 -28.8836 -0.1131 2.1688 -5.9723 3.2983 0.7586 18.2977 3.5921 2.1259 5.6035 1.4754 1.1733 -4.2472 10.9027 2.0591 -1.9861 -12.3338 2.2573 -6.2330 -5.5364 1.1499 -1.2108 -0.0000 0.0000 0.0000 -75.3245 26.6824 43.3215 28.8502 -39.8872 -10.6645 -0.0000 -0.0000 1.0333 -2.5348 10.8276 -0.4765 -7.1250 0.0000 -0.0000 -25.4317 39.4353 3.7765 -0.0000 0.0000 0.0000 78.9103 -19.2375 32.7342 -24.1686 35.3420 -7.8038 0.0000 0.0000 6.0599 -11.4900 -15.8819 3.1839 7.1250 -0.0000 -0.0000 15.1414 -45.6067 -0.2321
0.00 0.00 0.00 -54.5329 82.8390 -44.7946 0.0000 0.0000 0.0000 -5.0870 -10.1995 -39.4503 9.7797 17.2841 58.7496 0.7703 -17.8845 -18.8089 0.7453 -5.5147 -15.3827 0.0000 0.0000 0.0000 28.1122 8.0967 5.1165 -1.2879 -7.1909 20.2823 -1.4069 7.5748 -21.2136 -0.3916 4.0183 -11.1282 3.6021 1.3556 18.1080 2.5172 2.8662 5.2210 0.0044 1.5169 -4.4858 9.3768 1.0030 -1.7842 -10.0381 0.8865 -7.8834 -4.5890 0.4787 -1.9265 -0.0000 0.0000 0.0000 -72.3373 31.0175 42.3963 30.4095 -41.2418 -11.6786 -0.0000 0.0000 -0.9955 -6.8580 11.5393 -1.3782 -7.1250 0.0000 -0.0000 -29.1426 39.6801 4.2487 -0.0000 0.0000 0.0000 79.8316 -19.7046 34.9687 -28.9730 39.9967 -10.7434 0.0000 -0.0000 -0.7509 -17.8559 -15.9275 5.0519 7.1250 -0.0000 -0.0000 9.3339 -46.4547 -0.3380
0.00 0.00 0.00 -55.3284 82.3484 -45.2357 0.0000 0.0000 0.0000 -4.7170 -14.4841 -38.6134 4.2958 12.5439 37.6845 1.0378 -12.7362 -19.0113 0.9154 -6.0963 -17.0642 0.0000 0.0000 0.0000 27.4251 5.1894 11.6414 -1.0072 -6.3859 17.9083 -0.0253 7.1483 -5.5792 -0.7440 5.5099 -15.3688 2.2976 2.6444 16.9139 0.4690 4.1238 5.0910 -1.6237 2.1333 -3.8963 6.7657 -0.3266 -2.8323 -4.6152 -0.6337 -7.7846 -2.6744 -0.3547 -2.0403 -0.0000 -0.0000 0.0000 -69.3534 30.8902 37.8010 31.4099 -42.0716 -12.3436 -0.0000 0.0000 -3.5212 -8.5808 11.6972 -1.7522 -7.1250 0.0000 -0.0000 -30.5553 39.6550 4.5280 -0.0000 -0.0000 0.0000 79.2876 -20.2652 39.9897 -34.4943 44.4476 -14.4581 0.0000 -0.0000 -6.9312 -18.1524 -11.8905 3.8647 7.1250 -0.0000 -0.0000 8.1389 -42.3311 0.5399
0.00 0.00 0.00 319.4830 74.8183 320.4570 0.0000 0.0000 0.0000 1.3393 -11.7969 -31.9013 3.2909 11.1517 32.7932 0.1343 -4.7911 -6.8573 0.8382 -5.8400 -16.3209 0.0000 0.0000 0.0000 29.7212 7.6780 12.0351 -3.3548 -11.2483 33.1220 1.8848 24.1155 3.0475 -0.0068 0.5338 -1.4667 3.5152 4.2237 18.4586 -0.6162 6.4087 5.1188 -4.0122 3.2575 -4.3156 4.8889 -0.7023 0.2491 1.1261 -0.5176 -9.8471 -0.4685 -0.4013 -3.2196 0.0000 0.0000 0.0000 -74.1037 38.8908 28.6288 27.2762 -38.4413 -9.6703 -0.0000 0.0000 -3.2129 -2.0297 8.6279 -0.3046 -7.1250 0.0000 -0.0000 -24.3042 37.4778 4.8526 0.0000 0.0000 0.0000 78.2747 -18.9510 41.6906 -47.5691 51.9668 -24.2459 0.0000 -0.0000 -9.7496 -18.5344 -15.4233 5.0952 7.1250 -0.0000 -0.0000 8.5767 -46.0245 -0.2185
0.00 0.00 0.00 332.3510 75.1748 332.1810 0.0000 0.0000 0.0000 -3.3834 -7.4621 -34.2162 5.3598 13.7779 42.3548 0.0112 -10.7812 -7.7334 0.3605 -3.8572 -10.6751 0.0000 0.0000 0.0000 25.2273 10.9262 6.4384 -7.0400 -15.3655 49.0255 1.6545 22.6233 3.1573 -0.7957 5.6936 -15.8979 -1.2664 4.2655 20.7125 -2.3023 5.5443 6.2197 -3.0950 2.8889 -4.6500 4.0991 -0.2742 0.6496 3.2077 0.4522 -12.6060 0.3284 0.0073 -4.2588 0.0000 -0.0000 0.0000 -74.1112 32.6834 27.8640 25.4304 -36.6407 -8.5454 -0.0000 0.0000 -1.9099 -1.4588 8.4978 -0.2156 -7.1250 0.0000 -0.0000 -23.8105 37.4018 4.7869 0.0000 -0.0000 0.0000 79.5113 -17.0621 41.0260 -45.4106 50.9680 -22.5572 0.0000 -0.0000 -8.6432 -21.2998 -17.3600 6.6354 7.1250 -0.0000 -0.0000 6.4627 -48.4210 -0.5475
0.00 0.00 0.00 321.7040 77.8403 326.4690 0.0000 0.0000 0.0000 -3.1661 -8.3992 -36.4729 6.1563 14.5781 45.6058 0.1920 -13.4726 -11.6701 0.3147 -3.6062 -9.9713 0.0000 0.0000 0.0000 21.7621 15.5594 -22.2376 -10.4911 -17.6769 61.1175 -0.2406 17.2445 -14.3199 -1.4240 7.5461 -21.3438 -3.6173 1.4940 26.6015 -3.2824 1.3383 7.7336 -1.9738 0.9247 -6.1011 3.0355 0.7919 1.3034 4.4532 2.4875 -17.9887 0.7412 0.9294 -5.6743 0.0000 -0.0000 0.0000 -70.8849 16.8267 26.1877 41.6215 -49.0018 -19.6544 -0.0000 0.0000 -1.5264 15.7898 7.7484 2.1834 -7.1250 0.0000 -0.0000 -9.4359 37.8729 1.6735 0.0000 -0.0000 0.0000 81.0043 -13.5866 40.2486 -40.0088 48.0751 -18.4458 0.0000 -0.0000 -0.3489 -17.9308 -16.9916 5.4019 7.1250 -0.0000 -0.0000 9.5555 -47.5542 -0.6075
